<svg xmlns="http://www.w3.org/2000/svg" xmlns:xlink="http://www.w3.org/1999/xlink" width="85.174" height="86.577" viewBox="0 0 85.174 86.577"><defs><style>.a{fill:none;}.b{clip-path:url(#a);}.c{fill:#fff;}.d{fill:#464545;}.e{fill:#ac1411;}.f{fill:#d6070d;}</style><clipPath id="a"><rect class="a" width="85.174" height="86.577"/></clipPath></defs><g class="b"><path class="c" d="M689.29,529.863c23.045,0,41.727-19,41.727-42.428s-18.681-42.424-41.727-42.424-41.728,18.994-41.728,42.424,18.681,42.428,41.728,42.428" transform="translate(-646.703 -444.149)"/><path class="d" d="M689.546,530.984c-23.484,0-42.588-19.42-42.588-43.29s19.1-43.286,42.588-43.286,42.586,19.418,42.586,43.286-19.1,43.29-42.586,43.29m0-84.851c-22.535,0-40.867,18.646-40.867,41.561s18.333,41.564,40.867,41.564,40.866-18.644,40.866-41.564-18.333-41.561-40.866-41.561" transform="translate(-646.959 -444.408)"/></g><path class="e" d="M654.913,474.683c0,.034,0,.067,0,.1,0,17.56,14,31.795,31.272,31.795s31.27-14.234,31.27-31.795c0-.033,0-.066,0-.1Z" transform="translate(-643.595 -431.449)"/><path class="f" d="M717.449,484.32c0-.034,0-.067,0-.1,0-17.56-14-31.795-31.272-31.795s-31.269,14.234-31.269,31.795c0,.033,0,.066,0,.1Z" transform="translate(-643.594 -440.976)"/><path class="d" d="M665.988,504.034V458.909h15.3c4.578,0,8.357,1.377,10.929,3.98a12.127,12.127,0,0,1,3.441,8.6,10.5,10.5,0,0,1-2.6,7.012,14.054,14.054,0,0,1,3.781,3.267,12.717,12.717,0,0,1,2.818,7.9c0,9.436-7.731,14.373-15.369,14.373Zm17.3-10.086c2.056,0,5.5-.557,5.5-4.287,0-1.37,0-4.223-6.388-4.223H676.5v8.509Zm-3.178-18.6c4.979,0,4.979-2.2,4.979-3.507,0-1.448-1.284-2.91-4.154-2.91H676.5v6.417Z" transform="translate(-638.909 -438.201)"/><path class="c" d="M679.631,476.5c5.91,0,6.593-2.942,6.593-5.151,0-2.191-1.806-4.55-5.769-4.55H674.4v9.7h5.23Zm3.175,18.594c4.46,0,7.122-2.216,7.122-5.928,0-3.944-2.62-5.865-8-5.865H674.4V495.1h8.4Zm-15.683,6.8V460.059h13.682c4.142,0,7.525,1.212,9.787,3.5a10.493,10.493,0,0,1,2.966,7.436,9,9,0,0,1-3.842,7.424,12.865,12.865,0,0,1,5.387,3.89,11.045,11.045,0,0,1,2.455,6.86c0,8.36-6.917,12.729-13.752,12.729H667.123Z" transform="translate(-638.429 -437.709)"/><path class="d" d="M676.886,504.053v-5.018c.3,0,.6,0,.9-.011l.132,5.015c-.341.009-.686.014-1.029.014" transform="translate(-634.299 -421.031)"/><path class="d" d="M692.618,526.147l-.525-4.991q.9-.094,1.79-.237l.787,4.955q-1.02.163-2.052.273m-8.363-.017q-1.037-.111-2.056-.281l.813-4.951q.881.146,1.781.246Zm13.439-.868-1.184-4.874c.583-.143,1.164-.3,1.737-.475l1.446,4.8c-.662.2-1.326.381-2,.545m-18.513-.037q-1.01-.253-2-.554l1.461-4.8c.572.177,1.153.338,1.737.483Zm23.427-1.519-1.821-4.672q.843-.332,1.662-.705l2.072,4.567q-.944.431-1.913.811m-28.332-.057q-.965-.381-1.9-.814l2.087-4.561q.815.375,1.654.71Zm33-2.146-2.426-4.388q.79-.441,1.557-.92l2.653,4.253q-.877.55-1.783,1.055m-37.647-.07c-.6-.339-1.2-.693-1.779-1.061l2.665-4.244q.762.482,1.55.924Zm41.977-2.73-2.98-4.027c.482-.361.959-.735,1.423-1.121l3.185,3.87q-.8.66-1.628,1.278m-46.295-.08q-.83-.623-1.624-1.287l3.2-3.857q.694.581,1.417,1.121Zm50.216-3.259-3.476-3.606q.651-.632,1.269-1.3l3.653,3.424q-.7.758-1.446,1.478m-54.124-.094q-.745-.724-1.449-1.489l3.673-3.4c.407.441.825.874,1.256,1.294Zm57.58-3.726-3.912-3.124q.561-.709,1.087-1.449l4.067,2.919q-.6.844-1.242,1.655m-61.03-.109q-.64-.816-1.242-1.665l4.081-2.9q.521.739,1.082,1.451Zm63.964-4.127-4.283-2.593c.312-.516.61-1.04.892-1.572l4.411,2.363q-.489.917-1.02,1.8m-66.884-.124q-.532-.889-1.017-1.812l4.418-2.346q.425.8.888,1.578Zm69.247-4.455-4.581-2.012q.361-.829.683-1.679l4.675,1.778q-.365.968-.777,1.914m-71.6-.143q-.41-.951-.774-1.928l4.686-1.752c.212.57.435,1.131.676,1.685Zm73.353-4.705-4.8-1.4c.168-.578.322-1.165.46-1.755l4.867,1.151q-.237,1.011-.525,2m-75.088-.156q-.284-.994-.518-2.008l4.871-1.131q.2.887.452,1.756Zm76.2-4.882-4.941-.767q.137-.9.232-1.8l4.973.518q-.107,1.035-.265,2.052m-77.294-.156q-.156-1.022-.258-2.062l4.976-.49c.058.6.135,1.2.225,1.8Zm77.754-4.981-5-.124c.007-.318.011-.64.013-.961,0-.283,0-.573-.01-.864l5-.116q.013.493.013.99c0,.366-.006.723-.016,1.075m-78.2-.161c-.006-.3-.01-.61-.01-.914,0-.391.006-.771.017-1.151l5,.134q-.013.51-.014,1.025c0,.261,0,.53.007.8Zm73.037-4.484c-.06-.6-.136-1.2-.226-1.794l4.939-.768q.158,1.022.262,2.062Zm-67.854-.137-4.972-.528q.109-1.035.268-2.051l4.939.777q-.139.893-.235,1.8m67.117-4.311c-.137-.593-.29-1.177-.457-1.755l4.8-1.392q.286.992.522,2.006Zm-66.363-.138-4.864-1.16q.239-1.013.528-2l4.8,1.411q-.254.865-.464,1.754m65.061-4.18q-.318-.853-.679-1.685l4.585-2q.41.951.777,1.925Zm-63.742-.136-4.676-1.772q.367-.977.785-1.926l4.574,2.025c-.239.551-.47,1.108-.683,1.674m61.893-3.98q-.427-.8-.891-1.579l4.283-2.588c.356.593.7,1.2,1.02,1.811Zm-60.029-.119-4.407-2.372q.491-.915,1.022-1.8l4.279,2.6c-.31.516-.609,1.038-.894,1.572m57.664-3.723q-.523-.737-1.086-1.448l3.915-3.12q.645.814,1.244,1.661Zm-55.295-.1-4.057-2.929c.4-.561.817-1.112,1.245-1.649l3.9,3.132c-.374.471-.739.955-1.093,1.447m52.453-3.4c-.41-.444-.83-.874-1.261-1.294l3.478-3.6q.745.722,1.45,1.485Zm-49.6-.087-3.647-3.432c.471-.5.952-1,1.449-1.474l3.469,3.612c-.435.42-.858.853-1.271,1.294m46.336-3.01q-.7-.578-1.419-1.121l2.985-4.024q.828.619,1.625,1.282Zm-43.06-.077-3.178-3.876q.8-.66,1.632-1.277l2.971,4.036q-.73.54-1.426,1.117m39.427-2.565q-.764-.48-1.552-.922l2.429-4.384q.9.505,1.78,1.055Zm-35.78-.067-2.645-4.258q.879-.548,1.787-1.052l2.416,4.394c-.528.291-1.047.6-1.558.917m31.831-2.072q-.815-.373-1.655-.705l1.83-4.668q.965.381,1.9.811Zm-27.875-.053-2.056-4.571q.946-.428,1.913-.807l1.811,4.677c-.562.218-1.118.454-1.668.7m23.687-1.536q-.858-.264-1.739-.48l1.194-4.872q1.007.249,2,.55Zm-19.475-.042-1.439-4.805q.993-.3,2-.544l1.174,4.878c-.585.141-1.165.3-1.736.471m15.108-.975q-.89-.143-1.787-.243l.534-4.988q1.037.111,2.053.277Zm-10.742-.021-.777-4.958q1.018-.161,2.051-.268L685,452.1c-.6.063-1.2.14-1.792.236m6.277-.4c-.6-.014-1.2-.017-1.807,0l-.121-5.015c.689-.016,1.385-.014,2.068,0Z" transform="translate(-645.926 -443.342)"/><path class="d" d="M677.192,504.053c-.344,0-.689-.006-1.03-.014l.132-5.015c.3.007.6.011.9.011Z" transform="translate(-634.605 -421.031)"/><path class="d" d="M686.718,517.292c-17.769,0-32.225-14.694-32.225-32.756s14.456-32.752,32.225-32.752,32.225,14.693,32.225,32.752-14.456,32.756-32.225,32.756m0-63.775c-16.818,0-30.5,13.916-30.5,31.019s13.682,31.024,30.5,31.024,30.5-13.916,30.5-31.024-13.681-31.019-30.5-31.019" transform="translate(-643.771 -441.25)"/></svg>